<?xml version="1.0" encoding="UTF-8" standalone="no"?>
<!-- Generator: Adobe Illustrator 15.1.0, SVG Export Plug-In . SVG Version: 6.00 Build 0)  -->

<svg
   xmlns:dc="http://purl.org/dc/elements/1.1/"
   xmlns:cc="http://creativecommons.org/ns#"
   xmlns:rdf="http://www.w3.org/1999/02/22-rdf-syntax-ns#"
   xmlns:svg="http://www.w3.org/2000/svg"
   xmlns="http://www.w3.org/2000/svg"
   xmlns:sodipodi="http://sodipodi.sourceforge.net/DTD/sodipodi-0.dtd"
   xmlns:inkscape="http://www.inkscape.org/namespaces/inkscape"
   version="1.1"
   id="Layer_1"
   x="0px"
   y="0px"
   width="800"
   height="800"
   viewBox="0 0 800 800"
   enable-background="new 0 0 792 612"
   xml:space="preserve"
   sodipodi:docname="q2.svg"
   inkscape:version="0.92.2 (5c3e80d, 2017-08-06)"><metadata
     id="metadata9"><rdf:RDF><cc:Work
         rdf:about=""><dc:format>image/svg+xml</dc:format><dc:type
           rdf:resource="http://purl.org/dc/dcmitype/StillImage" /><dc:title></dc:title></cc:Work></rdf:RDF></metadata><defs
     id="defs7" /><sodipodi:namedview
     pagecolor="#ffffff"
     bordercolor="#666666"
     borderopacity="1"
     objecttolerance="10"
     gridtolerance="10"
     guidetolerance="10"
     inkscape:pageopacity="0"
     inkscape:pageshadow="2"
     inkscape:window-width="3745"
     inkscape:window-height="2126"
     id="namedview5"
     showgrid="false"
     inkscape:zoom="0.77124183"
     inkscape:cx="345.80795"
     inkscape:cy="311.93507"
     inkscape:window-x="84"
     inkscape:window-y="-11"
     inkscape:window-maximized="1"
     inkscape:current-layer="Layer_1" /><path
     stroke-miterlimit="22.9256"
     d="m 511.56744,259.70307 c -15.68,6.408 -42.404,11.044 -73.491,20.725 -31.087,9.68 -66.538,24.405 -96.534,38.995 -29.997,14.589 -54.539,29.042 -76.9,47.449 -22.361,18.407 -42.541,40.768 -58.902,58.766 -16.362,17.998 -28.906,31.633 -55.172,52.085 -26.267,20.452 -66.254999,47.722 -88.342999,62.993 -22.088,15.271 -26.277,18.543 -12.963,15.816 13.313,-2.728 44.128,-11.454 79.578999,-18.544 35.45,-7.09 75.537,-12.544 101.716,-15.407 26.179,-2.863 38.45,-3.136 54.402,1.909 15.952,5.045 35.587,15.407 57.948,21.543 19.405,5.324 39.94716,8.15263 64.35116,7.46663 0.204,4.684 8.25984,6.38437 18.54084,14.87837 11.341,9.371 26.506,26.172 37.848,37.119 11.341,10.947 18.859,16.04 18.737,18.102 -0.121,2.061 -7.882,1.091 -16.612,0.483 -8.73,-0.605 -18.431,-0.848 -26.676,-0.605 -8.246,0.242 -15.036,0.97 -19.523,3.517 -4.486,2.546 -6.669,6.912 -6.79,10.55 -0.122,3.638 1.818,6.547 3.516,6.668 1.698,0.122 3.153,-2.545 13.096,-3.637 9.943,-1.092 28.375,-0.606 44.865,-0.485 16.491,0.121 31.043,-0.121 43.289,0 12.248,0.121 22.19,0.606 29.466,2.426 7.276,1.818 11.884,4.972 14.188,8.027 2.304,3.055 2.304,6.014 4.123,5.044 1.818,-0.97 5.456,-5.868 4.365,-10.986 -1.092,-5.117 -6.913,-10.452 -15.4,-13.848 -8.487,-3.396 -19.643,-4.851 -19.158,-6.184 0.485,-1.334 12.61,-2.547 23.039,-3.031 10.428,-0.486 19.158,-0.243 26.434,0.363 7.276,0.606 13.097,1.576 16.977,5.093 3.88,3.517 5.819,9.58 7.518,10.064 1.697,0.485 3.152,-4.608 2.425,-10.792 -0.727,-6.184 -3.638,-13.459 -12.489,-17.098 -8.852,-3.637 -23.645,-3.637 -37.59,-2.667 -13.944,0.97 -27.04,2.91 -37.711,3.638 -10.671,0.728 -18.916,0.243 -26.919,-2.668 -8.003,-2.91 -15.764,-8.245 -22.751,-17.169 -6.989,-8.924 -13.204,-21.437 -13.585,-29.532 -0.348,-7.395 4.171,-11.105 8.772,-14.434 14.02,-2.469 27.796,-5.563 40.41,-9.167 27.679,-7.908 49.768,-18.271 71.038,-35.45 21.27,-17.18 41.722,-41.177 54.538,-64.765 12.817,-23.589 17.999,-46.768 20.998,-69.538 3,-22.771 3.817,-45.131 3,-59.175 -0.818,-14.043 -3.272,-19.771 -1.228,-26.451 2.045,-6.681 8.59,-14.317 14.453,-19.771 5.862,-5.455 11.044,-8.726 17.316,-9.953 6.271,-1.228 13.635,-0.41 19.156,1.022 5.522,1.432 9.204,3.477 8.932,0.409 -0.273,-3.067 -4.5,-11.249 -9.477,-18.134 -4.977,-6.886 -10.703,-12.476 -14.589,-17.657 -3.886,-5.181 -5.932,-9.954 -7.909,-17.384 -1.97,-7.404 -4.935,-11.96 -0.854,-18.472 3.034,-4.841 7.942,-7.909 13.328,-9.375 5.386,-1.466 11.249,-1.33 15.986,0.17 4.738,1.5 8.352,4.363 11.42,7.295 3.067,2.931 5.59,5.93 7.227,6.238 1.636,0.307 2.386,-2.08 3.442,-1.772 1.057,0.307 2.42,3.306 4.636,5.965 2.216,2.658 5.284,4.977 8.795,4.125 3.511,-0.853 7.465,-4.875 9.748,-9.92 2.284,-5.045 2.898,-11.112 0.717,-17.623 -2.181,-6.511 -7.158,-13.465 -13.908,-17.214 -6.749,-3.75 -15.271,-4.295 -24.986,-1.295 -9.714,2.999 -20.622,9.544 -30.371,16.941 -24.251,18.4 -7.541,3.683 -37.085,8.485 -13.839,2.25 -35.382,7.295 -51.472,12.885 -16.089,5.59 -26.724,11.726 -36.813,20.18 -10.09,8.454 -19.634,19.225 -26.724,28.701 -7.095,9.477 -11.73,17.658 -27.41,24.067 z"
     id="path2"
     inkscape:connector-curvature="0"
     style="clip-rule:evenodd;fill:#000000;fill-opacity:1;fill-rule:evenodd;stroke:#000000;stroke-width:3;stroke-linecap:round;stroke-linejoin:round;stroke-miterlimit:22.92560005;stroke-dasharray:none"
     sodipodi:nodetypes="cccsccsccssccccccccccssccsccsccsscsccscccccccccccccccsccscccccccscccccccc" /></svg>